<svg width="14" height="15" viewBox="0 0 14 15" fill="none" xmlns="http://www.w3.org/2000/svg">
<path d="M0.96875 8.125L0.28125 7.4375C0 7.125 0 6.65625 0.28125 6.375L6.375 0.28125C6.65625 0 7.125 0 7.40625 0.28125L13.5 6.375C13.7812 6.65625 13.7812 7.125 13.5 7.4375L12.8125 8.125C12.5 8.40625 12.0312 8.40625 11.7188 8.09375L8.15625 4.34375V13.3125C8.15625 13.75 7.8125 14.0625 7.40625 14.0625H6.40625C5.96875 14.0625 5.65625 13.75 5.65625 13.3125V4.34375L2.0625 8.125C1.75 8.40625 1.28125 8.4375 0.96875 8.125Z" fill="white"/>
</svg>
