<svg width="62" height="65" viewBox="0 0 62 65" fill="none" xmlns="http://www.w3.org/2000/svg">
<g clip-path="url(#clip0_6024_21330)">
<path d="M21.3227 2.38208L4.30649 32.9065C3.22487 34.8433 3.6498 37.2838 5.34948 38.7364L34.6305 63.8764C36.7937 65.7358 40.0965 65.2322 41.6031 62.7918L61.304 31.0278C62.5788 28.9748 62.0766 26.2632 60.1258 24.8299L28.1794 0.929462C25.9196 -0.75558 22.694 -0.0776898 21.3227 2.38208Z" fill="url(#paint0_linear_6024_21330)"/>
<path d="M17.6147 2.38208L0.598485 32.9065C-0.483135 34.8433 -0.0582125 37.2838 1.64148 38.7364L30.9032 63.8764C33.0664 65.7358 36.3692 65.2322 37.8757 62.7918L57.5767 31.0278C58.8514 28.9748 58.3493 26.2632 56.3985 24.8299L24.4521 0.929462C22.1923 -0.75558 18.986 -0.0776898 17.6147 2.38208Z" fill="url(#paint1_linear_6024_21330)"/>
<path d="M28.7784 43.6365C36.2774 43.6365 42.3566 37.5405 42.3566 30.0206C42.3566 22.5008 36.2774 16.4047 28.7784 16.4047C21.2794 16.4047 15.2002 22.5008 15.2002 30.0206C15.2002 37.5405 21.2794 43.6365 28.7784 43.6365Z" fill="#FBFBFD"/>
<path d="M30.4009 22.099L21.6514 35.6181H35.6738L30.4009 22.099Z" fill="url(#paint2_linear_6024_21330)"/>
</g>
<defs>
<linearGradient id="paint0_linear_6024_21330" x1="39.2674" y1="54.6369" x2="26.4447" y2="9.3336" gradientUnits="userSpaceOnUse">
<stop stop-color="#DD2F2F"/>
<stop offset="1" stop-color="#FF6757"/>
</linearGradient>
<linearGradient id="paint1_linear_6024_21330" x1="-0.000268465" y1="32.501" x2="58.2921" y2="32.501" gradientUnits="userSpaceOnUse">
<stop stop-color="#DD2F2F"/>
<stop offset="1" stop-color="#FF6757"/>
</linearGradient>
<linearGradient id="paint2_linear_6024_21330" x1="28.609" y1="35.4161" x2="25.8113" y2="25.5317" gradientUnits="userSpaceOnUse">
<stop stop-color="#DD2F2F"/>
<stop offset="1" stop-color="#FF6757"/>
</linearGradient>
<clipPath id="clip0_6024_21330">
<rect width="62" height="65" fill="white"/>
</clipPath>
</defs>
</svg>
