<svg width="40" height="40" viewBox="0 0 40 40" fill="none" xmlns="http://www.w3.org/2000/svg">
<path d="M39.1959 28.4051L38.4438 28.0291L21.4941 36.5039C20.5212 36.9967 19.3225 36.9967 18.3497 36.5039L1.39992 28.0291L0.647812 28.4051C0.250781 28.6035 0 29.0093 0 29.4532C0 29.8971 0.250781 30.3029 0.647812 30.5013L19.3978 39.8763C19.7277 40.0413 20.1161 40.0413 20.4459 39.8763L39.1959 30.5013C39.593 30.3029 39.8438 29.8971 39.8438 29.4532C39.8438 29.0093 39.593 28.6035 39.1959 28.4051Z" fill="#6C33FF"/>
<path d="M39.1959 22.9363L38.4438 22.5603L21.4941 31.0351C20.5212 31.528 19.3225 31.528 18.3497 31.0351L1.39992 22.5603L0.647812 22.9363C0.250781 23.1348 0 23.5405 0 23.9844C0 24.4283 0.250781 24.8341 0.647812 25.0326L19.3978 34.4076C19.7277 34.5726 20.1161 34.5726 20.4459 34.4076L39.1959 25.0326C39.593 24.8341 39.8438 24.4283 39.8438 23.9844C39.8438 23.5405 39.593 23.1348 39.1959 22.9363Z" fill="#6C33FF"/>
<path d="M9.61618 13.7905L11.9599 17.8501C12.2835 18.4105 13.0002 18.6027 13.5608 18.279L14.5258 17.7218C15.1109 18.1655 15.7395 18.5311 16.4063 18.8155V19.9219C16.4063 20.5691 16.9309 21.0938 17.5781 21.0938H22.2656C22.9128 21.0938 23.4375 20.5691 23.4375 19.9219V18.8155C24.1043 18.5311 24.7328 18.1655 25.318 17.7218L26.283 18.279C26.8434 18.6026 27.5602 18.4105 27.8838 17.8501L30.2275 13.7905C30.5511 13.2301 30.3591 12.5134 29.7986 12.1898L28.8377 11.6349C28.8833 11.27 28.9063 10.9062 28.9063 10.5469C28.9063 10.1875 28.8833 9.82375 28.8377 9.45883L29.7987 8.90398C30.3591 8.58039 30.5512 7.86367 30.2276 7.3032L27.8838 3.24367C27.5602 2.6832 26.8435 2.49109 26.2831 2.81477L25.318 3.37188C24.733 2.92828 24.1043 2.56258 23.4375 2.27813V1.17188C23.4375 0.524687 22.9128 0 22.2656 0H17.5781C16.9309 0 16.4063 0.524687 16.4063 1.17188V2.27813C15.7395 2.56258 15.1108 2.92828 14.5258 3.37188L13.5608 2.81469C13.0003 2.49109 12.2836 2.68313 11.96 3.24359L9.61626 7.30313C9.29266 7.86359 9.48469 8.58031 10.0452 8.90391L11.0061 9.45875C10.9605 9.82375 10.9375 10.1875 10.9375 10.5469C10.9375 10.9062 10.9605 11.27 11.006 11.6349L10.0451 12.1898C9.48462 12.5134 9.29258 13.2301 9.61618 13.7905ZM19.9219 7.03125C21.8604 7.03125 23.4375 8.60836 23.4375 10.5469C23.4375 12.4854 21.8604 14.0625 19.9219 14.0625C17.9834 14.0625 16.4063 12.4854 16.4063 10.5469C16.4063 8.60836 17.9834 7.03125 19.9219 7.03125Z" fill="#6C33FF"/>
<path d="M0.647812 19.5638L19.3978 28.9388C19.7277 29.1038 20.1161 29.1038 20.4459 28.9388L39.1959 19.5638C39.593 19.3654 39.8438 18.9596 39.8438 18.5157C39.8438 18.0718 39.593 17.666 39.1959 17.4676L32.5938 14.1665C32.5163 14.4389 32.4052 14.7063 32.2574 14.9624L29.9136 19.022C29.2877 20.1063 28.1205 20.78 26.8679 20.78C26.8678 20.78 26.8679 20.78 26.8678 20.78C26.4758 20.78 26.087 20.7138 25.7184 20.5862C25.4069 22.2082 23.9771 23.4376 22.2656 23.4376H17.5781C15.8666 23.4376 14.4369 22.2082 14.1255 20.5862C13.7568 20.7139 13.368 20.78 12.9759 20.78C11.7232 20.78 10.5561 20.1063 9.93008 19.0218L7.58641 14.9626C7.43984 14.7088 7.32695 14.442 7.24828 14.1674L0.647812 17.4676C0.250781 17.666 0 18.0718 0 18.5157C0 18.9596 0.250781 19.3654 0.647812 19.5638Z" fill="#6C33FF"/>
</svg>
