<svg width="73" height="65" viewBox="0 0 73 65" fill="none" xmlns="http://www.w3.org/2000/svg">
<path d="M5.50325 13.2647L58.4531 0.872154C61.4837 0.167481 64.49 2.13571 65.0476 5.19739L72.9028 47.6722C73.4362 50.6123 71.5451 53.431 68.6358 54.0142L14.9101 64.8759C11.9038 65.4834 8.99445 63.4908 8.46108 60.4535L1.3817 19.5095C0.896811 16.6665 2.6909 13.9208 5.50325 13.2647Z" fill="url(#paint0_linear_6024_21305)"/>
<path d="M4.2181 12.5357L57.168 0.14318C60.1985 -0.561493 63.2048 1.40673 63.7624 4.46841L71.6176 46.9432C72.151 49.8834 70.2599 52.7021 67.3506 53.2852L13.6249 64.1469C10.6186 64.7544 7.7093 62.7619 7.17592 59.7245L0.0723019 18.7806C-0.412587 15.9376 1.40575 13.1918 4.2181 12.5357Z" fill="url(#paint1_linear_6024_21305)"/>
<path d="M22.668 47.7451L16.5826 49.0329L14.1582 37.4666L20.2436 36.203L22.668 47.7451Z" fill="url(#paint2_linear_6024_21305)"/>
<path d="M31.6624 45.8497L25.5771 47.1376L21.9404 29.788L28.0258 28.5002L31.6624 45.8497Z" fill="url(#paint3_linear_6024_21305)"/>
<path d="M40.6819 43.9545L34.5965 45.2424L29.9658 23.1788L36.0512 21.891L40.6819 43.9545Z" fill="url(#paint4_linear_6024_21305)"/>
<path d="M49.6766 42.0591L43.5913 43.3469L37.7969 15.7189L43.8822 14.431L49.6766 42.0591Z" fill="url(#paint5_linear_6024_21305)"/>
<path d="M58.6957 40.1639L52.6103 41.4274L48.9736 24.1022L55.059 22.8143L58.6957 40.1639Z" fill="url(#paint6_linear_6024_21305)"/>
<defs>
<linearGradient id="paint0_linear_6024_21305" x1="46.0948" y1="9.50176" x2="29.2612" y2="54.6451" gradientUnits="userSpaceOnUse">
<stop stop-color="#FE7F0A"/>
<stop offset="1" stop-color="#FFB538"/>
</linearGradient>
<linearGradient id="paint1_linear_6024_21305" x1="4.82605" y1="57.8972" x2="67.2542" y2="7.77751" gradientUnits="userSpaceOnUse">
<stop stop-color="#FE7F0A"/>
<stop offset="1" stop-color="#FFB538"/>
</linearGradient>
<linearGradient id="paint2_linear_6024_21305" x1="21.1415" y1="40.0897" x2="15.8949" y2="44.9112" gradientUnits="userSpaceOnUse">
<stop stop-color="#FBFBFB"/>
<stop offset="1" stop-color="#E5E5E5"/>
</linearGradient>
<linearGradient id="paint3_linear_6024_21305" x1="30.2667" y1="34.6288" x2="23.6268" y2="40.7309" gradientUnits="userSpaceOnUse">
<stop stop-color="#FBFBFB"/>
<stop offset="1" stop-color="#E5E5E5"/>
</linearGradient>
<linearGradient id="paint4_linear_6024_21305" x1="39.371" y1="29.8221" x2="31.5934" y2="36.9696" gradientUnits="userSpaceOnUse">
<stop stop-color="#FBFBFB"/>
<stop offset="1" stop-color="#E5E5E5"/>
</linearGradient>
<linearGradient id="paint5_linear_6024_21305" x1="48.492" y1="24.5014" x2="39.3759" y2="32.8789" gradientUnits="userSpaceOnUse">
<stop stop-color="#FBFBFB"/>
<stop offset="1" stop-color="#E5E5E5"/>
</linearGradient>
<linearGradient id="paint6_linear_6024_21305" x1="57.288" y1="28.9347" x2="50.648" y2="35.0367" gradientUnits="userSpaceOnUse">
<stop stop-color="#FBFBFB"/>
<stop offset="1" stop-color="#E5E5E5"/>
</linearGradient>
</defs>
</svg>
