<svg width="90" height="30" viewBox="0 0 90 30" fill="none" xmlns="http://www.w3.org/2000/svg">
<path d="M32.9067 29.5995C32.9515 29.689 32.8864 29.7944 32.7863 29.7944H15.0064C6.68268 29.7944 0 23.1874 0 14.8972C0 6.60699 6.68268 0 15.0064 0C23.3291 0 30.0118 6.60699 30.0118 14.8972C30.0118 16.946 29.6035 18.8918 28.8639 20.6604C28.8266 20.7494 28.739 20.8069 28.6425 20.8069H21.8561C21.7363 20.8069 21.6684 20.6683 21.7433 20.5745C22.9696 19.0392 23.6974 17.0658 23.6974 14.8972C23.6974 9.93183 19.8844 5.99095 15.0062 5.99095C10.127 5.99095 6.31386 9.93183 6.31386 14.8972C6.31386 19.8626 10.5246 23.8035 15.4039 23.8035H29.8251C29.9392 23.8035 30.0436 23.868 30.0947 23.9703L32.9067 29.5995Z" fill="#1F1F1F"/>
<path d="M35.9086 19.9916H38.7025L40.0858 24.9135C40.1681 25.2243 40.2478 25.5353 40.3256 25.8458C40.403 26.1566 40.4694 26.4402 40.5241 26.6959C40.5878 26.9977 40.6474 27.2854 40.7021 27.5596H40.7297C40.7844 27.2854 40.8438 26.9977 40.9077 26.6959C40.9626 26.4402 41.0242 26.1568 41.0926 25.8458C41.1611 25.5353 41.2409 25.2245 41.3321 24.9135L42.7154 19.9916H45.5506V29.7942H43.7017V24.1732C43.7017 23.9721 43.7038 23.755 43.7085 23.5218C43.713 23.2889 43.7243 23.0674 43.7427 22.857C43.7517 22.6195 43.7654 22.3818 43.7837 22.1442H43.7564C43.7107 22.3726 43.6649 22.5966 43.6194 22.8159C43.5737 23.0078 43.5256 23.2089 43.4756 23.4191C43.4254 23.6296 43.3775 23.8258 43.3318 24.0087L41.6471 29.7942H39.7433L38.0997 24.0087C38.0448 23.8258 37.9946 23.6296 37.949 23.4191C37.9033 23.2089 37.8578 23.0078 37.8121 22.8159C37.7663 22.5966 37.7206 22.3726 37.6751 22.1442H37.6475C37.6565 22.382 37.6702 22.6197 37.6888 22.857C37.6978 23.0674 37.7069 23.2889 37.7161 23.5218C37.7251 23.7552 37.7298 23.9721 37.7298 24.1732V29.7942H35.9082V19.9916H35.9086Z" fill="#1F1F1F"/>
<path d="M49.9334 30C49.349 30 48.8307 29.9041 48.3788 29.712C47.9268 29.5202 47.5455 29.2573 47.235 28.9236C46.9245 28.5901 46.6895 28.1948 46.5298 27.7376C46.3698 27.2809 46.29 26.7917 46.29 26.2706C46.29 25.7497 46.3745 25.2631 46.5435 24.8106C46.7123 24.358 46.9496 23.9674 47.2557 23.6384C47.5616 23.3092 47.9268 23.0488 48.3514 22.8568C48.776 22.6647 49.2438 22.5688 49.7552 22.5688C50.3213 22.5688 50.8188 22.6715 51.2481 22.8773C51.6773 23.0829 52.0378 23.3733 52.3301 23.7481C52.6223 24.1229 52.8437 24.5685 52.9945 25.0849C53.1452 25.6014 53.2204 26.1748 53.2204 26.8054H48.1253C48.1982 27.3539 48.3831 27.7834 48.6801 28.0942C48.9767 28.405 49.39 28.5603 49.9196 28.5603C50.2846 28.5603 50.5769 28.4829 50.7962 28.3274C51.0152 28.1721 51.1749 27.962 51.2755 27.6967H53.111C53.0469 28.0076 52.9304 28.3023 52.7616 28.5811C52.5926 28.86 52.3733 29.1045 52.1042 29.3146C51.8348 29.5248 51.5174 29.6917 51.1524 29.8149C50.787 29.9382 50.3807 30 49.9334 30ZM49.7826 24.0087C49.2896 24.0087 48.915 24.1436 48.6596 24.4132C48.4038 24.6827 48.2349 25.0506 48.1529 25.5168H51.2757C51.2483 25.0692 51.0998 24.7058 50.8305 24.4269C50.5611 24.1481 50.2119 24.0087 49.7826 24.0087Z" fill="#1F1F1F"/>
<path d="M53.2617 22.7609H54.2341V20.5674H56.0557V22.7609H57.261V23.9947H56.0557V27.7237C56.0557 27.989 56.1194 28.1718 56.2474 28.2722C56.3752 28.3729 56.544 28.423 56.7541 28.423H57.1101C57.1738 28.423 57.2379 28.4185 57.3018 28.4091V29.7803C57.2104 29.7895 57.1101 29.794 57.0005 29.794C56.8999 29.803 56.7766 29.8077 56.6308 29.8077C56.4846 29.8077 56.3203 29.8077 56.1378 29.8077C55.9093 29.8077 55.6834 29.7826 55.4599 29.7324C55.236 29.6821 55.0329 29.5931 54.8504 29.4648C54.6677 29.3369 54.5194 29.1632 54.4053 28.9439C54.291 28.7246 54.2341 28.4504 54.2341 28.1212V23.9946H53.2617V22.7609Z" fill="#1F1F1F"/>
<path d="M59.7396 23.8852H59.7806C59.9905 23.4832 60.2279 23.1814 60.4929 22.9803C60.7575 22.7794 61.0955 22.6787 61.5063 22.6787C61.698 22.6787 61.8439 22.6969 61.9446 22.7335V24.3648H61.9035C61.2917 24.301 60.7893 24.4335 60.3969 24.7625C60.0042 25.0917 59.808 25.6263 59.808 26.3666V29.7942H57.9453V22.7609H59.7396V23.8852Z" fill="#1F1F1F"/>
<path d="M62.4795 19.9916H64.3421V21.6642H62.4795V19.9916ZM62.4795 22.7609H64.3421V29.7942H62.4795V22.7609Z" fill="#1F1F1F"/>
<path d="M68.5328 30C67.9757 30 67.4759 29.9041 67.0331 29.712C66.5901 29.5202 66.2135 29.2573 65.9032 28.9236C65.5927 28.5901 65.3529 28.1969 65.1841 27.7445C65.0151 27.2921 64.9307 26.8054 64.9307 26.2843C64.9307 25.7634 65.0129 25.2768 65.1773 24.8243C65.3416 24.3717 65.5765 23.9789 65.8825 23.6452C66.1883 23.3117 66.5557 23.0488 66.9852 22.8568C67.4143 22.6649 67.8981 22.5688 68.4369 22.5688C68.8934 22.5688 69.3043 22.633 69.6695 22.7607C70.0346 22.8888 70.3521 23.0647 70.6214 23.2885C70.8906 23.5126 71.1097 23.7822 71.2787 24.0975C71.4476 24.413 71.564 24.7623 71.6281 25.1463H69.8063C69.7424 24.8357 69.5986 24.5773 69.3749 24.3715C69.1511 24.1661 68.8658 24.0631 68.5188 24.0631C67.9525 24.0631 67.5279 24.2618 67.2451 24.6595C66.962 25.0571 66.8205 25.5986 66.8205 26.284C66.8205 26.9513 66.9551 27.4885 67.2246 27.8949C67.4939 28.3016 67.9163 28.505 68.4914 28.505C68.875 28.505 69.19 28.4068 69.4364 28.2103C69.6828 28.0137 69.8382 27.7144 69.9021 27.3121H71.6963C71.669 27.687 71.5752 28.0366 71.4155 28.3609C71.2555 28.6854 71.0409 28.969 70.7718 29.211C70.5024 29.4533 70.178 29.6454 69.7993 29.7868C69.4208 29.929 68.9985 30 68.5328 30Z" fill="#1F1F1F"/>
<path d="M46.4454 16.9872L44.8456 15.2053C45.7249 14.1615 46.1427 12.7959 46.1427 11.4909C46.1427 8.86566 44.4391 5.99451 40.7144 5.99451C36.9897 5.99451 35.2861 8.86584 35.2861 11.4909C35.2861 14.1159 36.9749 16.9872 40.7144 16.9872C41.8358 16.9872 42.7714 16.7276 43.5339 16.2952L44.1628 16.9872H46.4454ZM40.7144 15.0663C38.5317 15.0663 37.3943 13.2916 37.3943 11.4907C37.3943 9.6898 38.5119 8.00639 40.7144 8.00639C43.0071 8.00639 44.0345 9.68998 44.0345 11.4907C44.0345 12.2665 43.8543 13.0372 43.4616 13.6635L42.748 12.8687H40.4197L42.1634 14.7872C41.7548 14.9649 41.2742 15.0663 40.7144 15.0663Z" fill="#1F1F1F"/>
<path d="M51.5797 16.3925V15.5698H51.5385C51.3009 15.8898 51.0295 16.1388 50.7235 16.3172C50.4175 16.4952 50.018 16.5846 49.525 16.5846C48.7395 16.5846 48.137 16.3563 47.7169 15.899C47.2968 15.4421 47.0869 14.825 47.0869 14.048V9.35889H48.9361V13.7326C48.9361 14.1439 49.0297 14.4594 49.2169 14.6787C49.4039 14.898 49.6984 15.0077 50.1005 15.0077C50.5388 15.0077 50.8833 14.8592 51.1346 14.5621C51.3857 14.2653 51.5113 13.8834 51.5113 13.4172V9.35889H53.3741V16.3925H51.5797Z" fill="#1F1F1F"/>
<path d="M58.7295 16.3925C58.6747 16.3195 58.6289 16.2098 58.5925 16.0633C58.556 15.9174 58.5286 15.7666 58.5102 15.6109H58.4829C58.3914 15.748 58.2886 15.8738 58.1747 15.988C58.0604 16.1024 57.9234 16.2004 57.7638 16.2828C57.6039 16.3651 57.4146 16.4314 57.1953 16.4815C56.9763 16.5318 56.7158 16.557 56.4147 16.557C55.6932 16.557 55.1041 16.3741 54.6478 16.0086C54.1911 15.6431 53.9629 15.1084 53.9629 14.4044C53.9629 14.0205 54.0358 13.6961 54.1821 13.4309C54.3279 13.1659 54.529 12.9466 54.7848 12.7729C55.0404 12.5994 55.3395 12.4644 55.6821 12.3684C56.0244 12.2725 56.392 12.197 56.7846 12.1421C57.3688 12.0599 57.7981 11.9731 58.0721 11.8815C58.3461 11.7902 58.4831 11.612 58.4831 11.3468C58.4831 11.0911 58.3848 10.8875 58.1886 10.7367C57.9922 10.5861 57.6977 10.5104 57.3051 10.5104C56.8668 10.5104 56.5381 10.5906 56.3189 10.7504C56.0998 10.9106 55.9764 11.1596 55.949 11.4978H54.2917C54.3007 11.1871 54.3691 10.8924 54.4971 10.6134C54.6249 10.3347 54.8121 10.0902 55.0587 9.87976C55.3053 9.66967 55.6157 9.50066 55.9902 9.37256C56.3645 9.24463 56.8072 9.18066 57.3188 9.18066C58.3687 9.18066 59.1244 9.40697 59.5857 9.8594C60.0467 10.3118 60.2775 10.9493 60.2775 11.772V15.3505C60.2775 15.8808 60.3597 16.2053 60.5241 16.324V16.3925H58.7295ZM56.8666 15.2545C57.1314 15.2545 57.3667 15.2158 57.5721 15.1379C57.7774 15.0603 57.951 14.9597 58.0926 14.8363C58.2341 14.7129 58.3414 14.5713 58.4145 14.4113C58.4874 14.2514 58.5241 14.0846 58.5241 13.9107V12.8551C58.3598 12.956 58.1612 13.0358 57.9283 13.0951C57.6954 13.1549 57.4603 13.2116 57.2229 13.2664C56.7298 13.3761 56.3644 13.5042 56.1272 13.6504C55.8896 13.7967 55.771 14.0343 55.771 14.3633C55.771 14.6925 55.8714 14.9235 56.0723 15.0559C56.273 15.1884 56.538 15.2545 56.8666 15.2545Z" fill="#1F1F1F"/>
<path d="M63.0032 10.3185H63.0443C63.2817 9.93467 63.567 9.64656 63.9004 9.45467C64.2337 9.26278 64.6421 9.16675 65.1263 9.16675C65.4914 9.16675 65.8226 9.23323 66.1194 9.36549C66.416 9.4981 66.6695 9.6808 66.8795 9.91395C67.0896 10.1471 67.2539 10.4235 67.3727 10.7433C67.4914 11.0635 67.5508 11.4154 67.5508 11.799V16.3921H65.6879V12.0732C65.6879 11.6893 65.5828 11.3786 65.3729 11.1408C65.1629 10.9033 64.8616 10.7844 64.469 10.7844C64.058 10.7844 63.7177 10.933 63.4486 11.23C63.1791 11.5269 63.0445 11.9177 63.0445 12.4022V16.3921H61.1816V9.35882H63.0034V10.3185H63.0032Z" fill="#1F1F1F"/>
<path d="M67.8789 9.35884H68.8514V7.16516H70.6732V9.35884H71.8785V10.5929H70.6732V14.3221C70.6732 14.5873 70.7369 14.7702 70.8649 14.8705C70.9927 14.9712 71.1616 15.0213 71.3718 15.0213H71.7278C71.7916 15.0213 71.8556 15.0168 71.9195 15.0075V16.3786C71.8281 16.3878 71.7278 16.3923 71.6182 16.3923C71.5176 16.4013 71.3943 16.406 71.2485 16.406C71.1022 16.406 70.938 16.406 70.7553 16.406C70.5269 16.406 70.301 16.381 70.0772 16.3307C69.8533 16.2804 69.6503 16.1914 69.4678 16.0631C69.2851 15.9352 69.1367 15.7615 69.0226 15.5422C68.9083 15.323 68.8514 15.0487 68.8514 14.7195V10.5929H67.8789V9.35884Z" fill="#1F1F1F"/>
<path d="M77.0016 16.3925V15.5698H76.9604C76.7228 15.8898 76.4513 16.1388 76.1453 16.3172C75.8393 16.4952 75.4399 16.5846 74.9469 16.5846C74.1614 16.5846 73.5589 16.3563 73.1388 15.899C72.7187 15.4421 72.5088 14.825 72.5088 14.048V9.35889H74.3581V13.7326C74.3581 14.1439 74.4517 14.4594 74.6389 14.6787C74.8259 14.898 75.1204 15.0077 75.5225 15.0077C75.9608 15.0077 76.3054 14.8592 76.5566 14.5621C76.8077 14.2653 76.9334 13.8834 76.9334 13.4172V9.35889H78.7962V16.3925H77.0016Z" fill="#1F1F1F"/>
<path d="M79.7267 9.35882H81.5212V10.3048H81.5622C81.7539 9.98494 82.0187 9.71539 82.3565 9.49594C82.6942 9.27666 83.11 9.16675 83.603 9.16675C84.0503 9.16675 84.4431 9.27882 84.781 9.50278C85.1186 9.72674 85.3744 10.026 85.5481 10.4008H85.5755C85.8127 10.0168 86.1117 9.71521 86.4726 9.49594C86.8333 9.27666 87.2374 9.16675 87.6849 9.16675C88.4245 9.16675 88.9951 9.38837 89.3971 9.83161C89.7988 10.275 89.9997 10.8853 89.9997 11.662V16.3923H88.1369V11.9775C88.1369 11.5756 88.0431 11.2738 87.8561 11.0727C87.6689 10.8718 87.4018 10.7711 87.0549 10.7711C86.6621 10.7711 86.354 10.9105 86.1302 11.1893C85.9063 11.4682 85.7947 11.8404 85.7947 12.3065V16.3923H83.9317V11.9775C83.9317 11.5756 83.8379 11.2738 83.6509 11.0727C83.4635 10.8718 83.1966 10.7711 82.8496 10.7711C82.466 10.7711 82.16 10.9105 81.9317 11.1893C81.7035 11.4682 81.5894 11.8404 81.5894 12.3065V16.3923H79.7266L79.7267 9.35882Z" fill="#1F1F1F"/>
</svg>
