<svg width="24" height="24" viewBox="0 0 24 24" fill="none" xmlns="http://www.w3.org/2000/svg">
<path d="M12.4377 24C9.58567 24 6.97796 22.9269 4.96178 21.1518L0 21.8498L1.91689 16.9785C1.24904 15.4612 0.87436 13.7767 0.87436 12C0.87436 5.37298 6.05145 0 12.4377 0C18.8234 0 24 5.37298 24 12C24 18.6283 18.8236 24 12.4377 24ZM18.7514 11.9657V11.9323C18.7514 8.46951 16.3797 6.00036 12.2904 6.00036H7.87373V18.0004H12.225C16.3461 18.0005 18.7514 15.4283 18.7514 11.9657ZM12.3391 15.0521H11.0473V8.94951H12.3391C14.2365 8.94951 15.4959 10.0633 15.4959 11.9842V12.0176C15.4959 13.9547 14.2365 15.0521 12.3391 15.0521Z" fill="#2E9FFF"/>
</svg>
