<svg width="26" height="24" viewBox="0 0 26 24" fill="none" xmlns="http://www.w3.org/2000/svg">
<g clip-path="url(#clip0_6024_22179)">
<path d="M18.1398 9H24.8514C25.4561 9 26.0003 9.54 26.0003 10.14V16.2C26.0003 18.54 24.1259 20.4 21.7677 20.4C19.4096 20.4 17.5352 18.54 17.5352 16.2V9.6C17.5352 9.24 17.777 9 18.1398 9Z" fill="#5059C9"/>
<path d="M22.6741 7.80039C24.1768 7.80039 25.395 6.59156 25.395 5.10039C25.395 3.60922 24.1768 2.40039 22.6741 2.40039C21.1713 2.40039 19.9531 3.60922 19.9531 5.10039C19.9531 6.59156 21.1713 7.80039 22.6741 7.80039Z" fill="#5059C9"/>
<path d="M14.2095 7.8C16.3801 7.8 18.1398 6.05391 18.1398 3.9C18.1398 1.74609 16.3801 0 14.2095 0C12.0389 0 10.2793 1.74609 10.2793 3.9C10.2793 6.05391 12.0389 7.8 14.2095 7.8Z" fill="#7B83EB"/>
<path d="M19.4695 9H8.34395C7.7393 9 7.19512 9.54 7.25558 10.14V17.04C7.19512 20.76 10.1579 23.88 13.9067 23.94C17.6556 23.82 20.6184 20.76 20.5579 17.04V10.14C20.5579 9.54 20.0742 9 19.4695 9Z" fill="#7B83EB"/>
<path opacity="0.1" d="M14.5117 9V18.72C14.5117 19.14 14.2093 19.56 13.8466 19.74C13.6652 19.8 13.5442 19.8 13.4233 19.8H7.80005C7.73958 19.62 7.67912 19.38 7.55818 19.2C7.31632 18.54 7.25586 17.82 7.25586 17.1V10.14C7.25586 9.54 7.73958 9 8.34423 9H14.5117Z" fill="black"/>
<path opacity="0.2" d="M13.907 9V19.32C13.907 19.44 13.907 19.62 13.8466 19.74C13.6652 20.16 13.3024 20.4 12.8187 20.4H8.10237C7.98144 20.22 7.92098 19.98 7.80005 19.8C7.67911 19.62 7.67912 19.38 7.55818 19.2C7.31632 18.54 7.25586 17.82 7.25586 17.1V10.14C7.25586 9.54 7.73958 9 8.34423 9H13.907Z" fill="black"/>
<path opacity="0.2" d="M13.9071 9V18.12C13.9071 18.72 13.4234 19.2 12.8187 19.2H7.61873C7.37687 18.54 7.31641 17.82 7.31641 17.1V10.14C7.31641 9.54 7.80013 9 8.40478 9H13.9071Z" fill="black"/>
<path opacity="0.2" d="M13.3025 9V18.12C13.3025 18.72 12.8187 19.2 12.2141 19.2H7.61873C7.37687 18.54 7.31641 17.82 7.31641 17.1V10.14C7.31641 9.54 7.80013 9 8.40478 9H13.3025Z" fill="black"/>
<path opacity="0.1" d="M14.512 5.8798V7.7998C14.3911 7.7998 14.3306 7.7998 14.2097 7.7998C14.0888 7.7998 14.0283 7.7998 13.9074 7.7998C13.726 7.7998 13.4841 7.7398 13.3027 7.6798C12.0934 7.3798 11.0655 6.5398 10.5818 5.3998C10.5213 5.2198 10.4609 4.9798 10.4004 4.7998H13.4236C14.0283 4.7998 14.512 5.2798 14.512 5.8798Z" fill="black"/>
<path opacity="0.2" d="M13.9066 6.48039V7.80039C13.7252 7.80039 13.4834 7.74039 13.302 7.68039C12.0927 7.38039 11.0648 6.54039 10.5811 5.40039H12.8183C13.4229 5.40039 13.9066 5.88039 13.9066 6.48039Z" fill="black"/>
<path opacity="0.2" d="M13.9066 6.48039V7.80039C13.7252 7.80039 13.4834 7.74039 13.302 7.68039C12.0927 7.38039 11.0648 6.54039 10.5811 5.40039H12.8183C13.4229 5.40039 13.9066 5.88039 13.9066 6.48039Z" fill="black"/>
<path opacity="0.2" d="M13.302 6.48039V7.68039C12.0927 7.38039 11.0648 6.54039 10.5811 5.40039H12.2136C12.8183 5.40039 13.302 5.88039 13.302 6.48039Z" fill="black"/>
<path d="M1.08837 5.40039H12.1535C12.7581 5.40039 13.2419 5.88039 13.2419 6.48039V17.4604C13.2419 18.0604 12.7581 18.5404 12.1535 18.5404H1.08837C0.483721 18.5404 0 18.0604 0 17.4604V6.48039C0 5.88039 0.483721 5.40039 1.08837 5.40039Z" fill="url(#paint0_linear_6024_22179)"/>
<path d="M9.55367 9.60039H7.31647V15.6004H5.92577V9.60039H3.74902V8.40039H9.55367V9.60039Z" fill="white"/>
</g>
<defs>
<linearGradient id="paint0_linear_6024_22179" x1="2.31086" y1="4.54101" x2="10.8913" y2="19.5172" gradientUnits="userSpaceOnUse">
<stop stop-color="#5A62C3"/>
<stop offset="0.5" stop-color="#4D55BD"/>
<stop offset="1" stop-color="#3940AB"/>
</linearGradient>
<clipPath id="clip0_6024_22179">
<rect width="26" height="24" fill="white"/>
</clipPath>
</defs>
</svg>
