<svg width="22" height="24" viewBox="0 0 22 24" fill="none" xmlns="http://www.w3.org/2000/svg">
<g clip-path="url(#clip0_6024_22166)">
<path d="M8.86051 0.556641L8.73084 0.642355C8.51473 0.770926 8.34185 0.899498 8.16896 1.02807L8.51473 0.770926H11.5403L12.1022 4.88521L9.33595 7.62807L6.56974 9.51378V11.6995C6.56974 13.2424 7.39096 14.6566 8.68762 15.4281L11.5835 17.1852L5.44597 20.7424H4.3222L2.11788 19.4138C0.821218 18.6424 0 17.2281 0 15.6852V8.31378C0 6.77093 0.821218 5.35664 2.11788 4.58521L8.73084 0.642355C8.77407 0.599498 8.81729 0.599498 8.86051 0.556641Z" fill="url(#paint0_radial_6024_22166)"/>
<path d="M8.86051 0.556641L8.73084 0.642355C8.51473 0.770926 8.34185 0.899498 8.16896 1.02807L8.51473 0.770926H11.5403L12.1022 4.88521L9.33595 7.62807L6.56974 9.51378V11.6995C6.56974 13.2424 7.39096 14.6566 8.68762 15.4281L11.5835 17.1852L5.44597 20.7424H4.3222L2.11788 19.4138C0.821218 18.6424 0 17.2281 0 15.6852V8.31378C0 6.77093 0.821218 5.35664 2.11788 4.58521L8.73084 0.642355C8.77407 0.599498 8.81729 0.599498 8.86051 0.556641Z" fill="url(#paint1_linear_6024_22166)"/>
<path d="M15.3866 9.25684V11.6997C15.3866 13.2425 14.5653 14.6568 13.2687 15.4283L6.65571 19.3711C5.31583 20.1854 3.63017 20.2283 2.24707 19.4568L8.68715 23.314C10.0703 24.1711 11.8424 24.1711 13.2255 23.314L19.8816 19.414C21.1783 18.6425 21.9995 17.2283 21.9995 15.6854V13.9283L21.4376 13.114L15.3866 9.25684Z" fill="url(#paint2_radial_6024_22166)"/>
<path d="M15.3866 9.25684V11.6997C15.3866 13.2425 14.5653 14.6568 13.2687 15.4283L6.65571 19.3711C5.31583 20.1854 3.63017 20.2283 2.24707 19.4568L8.68715 23.314C10.0703 24.1711 11.8424 24.1711 13.2255 23.314L19.8816 19.414C21.1783 18.6425 21.9995 17.2283 21.9995 15.6854V13.9283L21.4376 13.114L15.3866 9.25684Z" fill="url(#paint3_linear_6024_22166)"/>
<path d="M19.8824 4.58524L13.2695 0.642383C11.9296 -0.171902 10.2439 -0.21476 8.86083 0.556669L8.73116 0.642383C7.4345 1.41381 6.61328 2.8281 6.61328 4.37095V9.55667L8.73116 8.27096C10.1143 7.41381 11.8864 7.41381 13.2695 8.27096L19.8824 12.2138C21.1791 12.9852 21.9571 14.3138 22.0003 15.8138C22.0003 15.771 22.0003 15.7281 22.0003 15.6852V8.31381C22.0003 6.81381 21.1791 5.39953 19.8824 4.58524Z" fill="url(#paint4_radial_6024_22166)"/>
<path d="M19.8824 4.58524L13.2695 0.642383C11.9296 -0.171902 10.2439 -0.21476 8.86083 0.556669L8.73116 0.642383C7.4345 1.41381 6.61328 2.8281 6.61328 4.37095V9.55667L8.73116 8.27096C10.1143 7.41381 11.8864 7.41381 13.2695 8.27096L19.8824 12.2138C21.1791 12.9852 21.9571 14.3138 22.0003 15.8138C22.0003 15.771 22.0003 15.7281 22.0003 15.6852V8.31381C22.0003 6.81381 21.1791 5.39953 19.8824 4.58524Z" fill="url(#paint5_linear_6024_22166)"/>
</g>
<defs>
<radialGradient id="paint0_radial_6024_22166" cx="0" cy="0" r="1" gradientTransform="matrix(-6.43638 17.0441 29.9815 11.1316 7.38195 4.71128)" gradientUnits="userSpaceOnUse">
<stop offset="0.06441" stop-color="#AE7FE2"/>
<stop offset="1" stop-color="#0078D4"/>
</radialGradient>
<linearGradient id="paint1_linear_6024_22166" x1="10.8936" y1="17.5911" x2="8.30773" y2="13.0806" gradientUnits="userSpaceOnUse">
<stop stop-color="#114A8B"/>
<stop offset="1" stop-color="#0078D4" stop-opacity="0"/>
</linearGradient>
<radialGradient id="paint2_radial_6024_22166" cx="0" cy="0" r="1" gradientTransform="matrix(16.8992 -2.46458 -1.64189 -11.0688 3.53546 18.7375)" gradientUnits="userSpaceOnUse">
<stop offset="0.1339" stop-color="#D59DFF"/>
<stop offset="1" stop-color="#5E438F"/>
</radialGradient>
<linearGradient id="paint3_linear_6024_22166" x1="17.3279" y1="10.909" x2="14.5533" y2="14.9213" gradientUnits="userSpaceOnUse">
<stop stop-color="#493474"/>
<stop offset="1" stop-color="#8C66BA" stop-opacity="0"/>
</linearGradient>
<radialGradient id="paint4_radial_6024_22166" cx="0" cy="0" r="1" gradientTransform="matrix(-13.2896 -3.34124 -5.67261 22.183 20.3836 13.3621)" gradientUnits="userSpaceOnUse">
<stop offset="0.0584996" stop-color="#50E6FF"/>
<stop offset="1" stop-color="#436DCD"/>
</radialGradient>
<linearGradient id="paint5_linear_6024_22166" x1="7.14143" y1="7.9169" x2="11.2736" y2="7.9169" gradientUnits="userSpaceOnUse">
<stop stop-color="#2D3F80"/>
<stop offset="1" stop-color="#436DCD" stop-opacity="0"/>
</linearGradient>
<clipPath id="clip0_6024_22166">
<rect width="22" height="24" fill="white"/>
</clipPath>
</defs>
</svg>
