<svg width="23" height="24" viewBox="0 0 23 24" fill="none" xmlns="http://www.w3.org/2000/svg">
<path d="M17.0032 11.3405C17.1783 11.3194 17.3463 11.3189 17.5003 11.3405C17.5895 11.1356 17.6049 10.7828 17.5248 10.3988C17.4053 9.82759 17.2441 9.482 16.9106 9.53576C16.5771 9.58952 16.5647 10.0033 16.6841 10.5745C16.7513 10.8956 16.8703 11.1706 17.0032 11.3405Z" fill="black"/>
<path d="M14.1392 11.7928C14.3782 11.8974 14.5245 11.967 14.5821 11.9066C14.6191 11.8686 14.608 11.7966 14.5509 11.7035C14.4334 11.511 14.1906 11.3162 13.9339 11.2062C13.408 10.9797 12.7809 11.055 12.2973 11.403C12.1375 11.5202 11.9863 11.6824 12.0079 11.7808C12.0151 11.8125 12.0386 11.8365 12.0948 11.8446C12.2262 11.8595 12.6864 11.6272 13.2166 11.5946C13.5908 11.5715 13.9008 11.6882 14.1392 11.7928Z" fill="black"/>
<path d="M13.6583 12.0672C13.3473 12.1162 13.176 12.2189 13.0657 12.3144C12.9716 12.3965 12.9136 12.4872 12.9141 12.5511L12.9381 12.6077L12.9894 12.6274C13.0594 12.6274 13.2168 12.5645 13.2168 12.5645C13.6496 12.4095 13.9351 12.4282 14.2177 12.4603C14.3741 12.4781 14.448 12.4877 14.4821 12.4339C14.4922 12.4186 14.5046 12.3855 14.4735 12.3346C14.4005 12.2165 14.0867 12.0168 13.6587 12.0677L13.6583 12.0672Z" fill="black"/>
<path d="M16.0358 13.0731C16.2469 13.1768 16.4791 13.136 16.5549 12.9819C16.6307 12.8278 16.5209 12.619 16.3097 12.5153C16.0986 12.4117 15.8664 12.4525 15.7906 12.6065C15.7148 12.7606 15.8247 12.9694 16.0358 13.0731Z" fill="black"/>
<path d="M17.3929 11.8868C17.2216 11.8839 17.0791 12.072 17.0753 12.3077C17.0714 12.5429 17.2072 12.7359 17.3785 12.7387C17.5498 12.7416 17.6923 12.5535 17.6961 12.3183C17.7 12.0831 17.5642 11.8901 17.3929 11.8868Z" fill="black"/>
<path d="M5.8745 16.1288C5.83179 16.0755 5.76174 16.0918 5.69409 16.1072C5.64659 16.1182 5.59285 16.1307 5.53431 16.1297C5.40812 16.1273 5.30112 16.0736 5.24115 15.9814C5.16294 15.8614 5.16774 15.6824 5.25362 15.4774L5.29393 15.3857C5.43163 15.0771 5.66146 14.5601 5.40332 14.0681C5.209 13.6976 4.89136 13.4667 4.50991 13.4182C4.14382 13.3716 3.76669 13.5075 3.5263 13.7729C3.14677 14.1915 3.08775 14.7612 3.16117 14.9628C3.18803 15.0368 3.23026 15.0569 3.26049 15.0612C3.32526 15.0699 3.42026 15.0228 3.48024 14.862L3.49751 14.8097C3.52438 14.7248 3.5738 14.5664 3.65489 14.4392C3.75277 14.286 3.90535 14.1804 4.0848 14.142C4.26713 14.1032 4.45378 14.1377 4.60972 14.24C4.87553 14.4142 4.97773 14.7396 4.86449 15.0507C4.80596 15.2115 4.71048 15.5187 4.73159 15.7712C4.77429 16.2824 5.08857 16.4878 5.3707 16.5094C5.64515 16.52 5.83707 16.3654 5.88553 16.2526C5.91432 16.1859 5.88985 16.1456 5.8745 16.1278V16.1288Z" fill="black"/>
<path d="M21.7205 15.1943C21.7099 15.1574 21.6418 14.9083 21.5482 14.6083L21.3577 14.0971C21.7329 13.535 21.7397 13.0324 21.6898 12.7478C21.6365 12.395 21.4897 12.094 21.1936 11.7835C20.8976 11.4724 20.2925 11.1542 19.4418 10.9156L18.9956 10.7918C18.9932 10.7736 18.9721 9.73916 18.9529 9.29517C18.939 8.97405 18.9112 8.47341 18.7557 7.97949C18.5705 7.31133 18.2481 6.72717 17.845 6.35326C18.9568 5.20078 19.6506 3.9307 19.6486 2.84159C19.6453 0.746876 17.074 0.112799 13.9048 1.42559L13.2336 1.71071C13.2307 1.70783 12.0196 0.519357 12.0014 0.503517C8.38843 -2.64911 -2.90872 9.91244 0.703297 12.9633L1.49259 13.6324C1.28771 14.1628 1.20758 14.771 1.27331 15.4247C1.35776 16.2643 1.79055 17.0692 2.49251 17.6913C3.15849 18.2817 4.03463 18.6556 4.88437 18.6546C6.28974 21.8951 9.50111 23.8828 13.2667 23.9946C17.3057 24.1146 20.6965 22.2186 22.1173 18.8126C22.2104 18.5735 22.6048 17.4964 22.6048 16.5455C22.6048 15.5899 22.065 15.1939 21.7209 15.1939L21.7205 15.1943ZM5.19481 17.7446C5.07198 17.7657 4.94675 17.7739 4.82056 17.771C3.6004 17.7383 2.28284 16.6396 2.15185 15.3364C2.00694 13.8964 2.74249 12.7876 4.04518 12.5251C4.20064 12.4939 4.38921 12.4756 4.59217 12.4862C5.32196 12.526 6.39722 13.0867 6.64288 14.6769C6.86023 16.0852 6.51477 17.5195 5.19481 17.7446ZM3.83263 11.6635C3.02174 11.8214 2.30731 12.2808 1.8702 12.9158C1.60918 12.6979 1.12217 12.276 1.03629 12.1118C0.33864 10.7865 1.79775 8.20989 2.81686 6.75501C5.33587 3.15887 9.28088 0.437277 11.1075 0.930716C11.4045 1.01472 12.3877 2.15519 12.3877 2.15519C12.3877 2.15519 10.562 3.16847 8.8692 4.5811C6.58818 6.33838 4.8647 8.89197 3.83263 11.6635ZM16.6378 17.206C16.6642 17.195 16.6824 17.1643 16.6796 17.1345C16.6757 17.0975 16.6426 17.0707 16.6057 17.0745C16.6057 17.0745 14.6946 17.3577 12.8891 16.6963C13.0858 16.0569 13.6088 16.2878 14.399 16.3516C15.8236 16.4366 17.1004 16.2283 18.0437 15.9575C18.8613 15.7228 19.9351 15.2601 20.7695 14.6015C21.0506 15.2198 21.15 15.8999 21.15 15.8999C21.15 15.8999 21.3678 15.8611 21.5497 15.9729C21.7214 16.079 21.8476 16.2988 21.7617 16.8681C21.5861 17.9313 21.1346 18.7938 20.3756 19.5878C19.9135 20.0855 19.3526 20.518 18.7106 20.8324C18.3699 21.0114 18.0067 21.1665 17.6234 21.2918C14.7618 22.2268 11.832 21.1986 10.8878 18.9911C10.8124 18.825 10.7486 18.6513 10.6982 18.4699C10.2957 17.015 10.6373 15.2697 11.7054 14.171C11.7711 14.1009 11.8383 14.0183 11.8383 13.9147C11.8383 13.8278 11.7831 13.7366 11.7356 13.6718C11.3618 13.1299 10.0678 12.2059 10.3278 10.4179C10.5145 9.13341 11.6372 8.22909 12.6842 8.28285L12.9495 8.29821C13.4029 8.32509 13.7988 8.38317 14.1726 8.39901C14.7977 8.42589 15.3596 8.33517 16.0251 7.78029C16.2497 7.59309 16.4296 7.43085 16.7343 7.37901C16.7664 7.37373 16.8461 7.34493 17.0049 7.35261C17.1675 7.36125 17.322 7.40589 17.4612 7.49853C17.9947 7.85373 18.0705 8.71437 18.0984 9.34364C18.1142 9.70316 18.1574 10.5724 18.1723 10.8216C18.2063 11.3923 18.356 11.4724 18.6593 11.5728C18.8301 11.6289 18.9884 11.6707 19.2216 11.7364C19.9279 11.9347 20.3468 12.1363 20.6111 12.3945C20.7685 12.5563 20.8419 12.7276 20.8645 12.8918C20.948 13.4999 20.3928 14.2507 18.9232 14.9332C17.3168 15.6791 15.3682 15.8678 14.0219 15.718L13.5502 15.6647C12.4731 15.5198 11.8589 16.9123 12.5052 17.866C12.9217 18.4809 14.0564 18.8807 15.1917 18.8812C17.7947 18.8817 19.7955 17.7695 20.5396 16.8091L20.5991 16.7241C20.6356 16.6689 20.6054 16.6387 20.5598 16.6699C19.9519 17.086 17.251 18.7386 14.3621 18.2414C14.3621 18.2414 14.0109 18.1838 13.6908 18.059C13.436 17.9601 12.9035 17.7148 12.8387 17.1676C15.1701 17.8891 16.6378 17.207 16.6378 17.207V17.206ZM12.9447 16.7697L12.9452 16.7702L12.9457 16.7711L12.9447 16.7697ZM8.48487 6.73965C9.3802 5.7043 10.4828 4.8043 11.4703 4.29886C11.5043 4.28158 11.5408 4.31854 11.5221 4.35214C11.4439 4.49422 11.2927 4.79854 11.2447 5.02894C11.2371 5.06494 11.2764 5.09182 11.3066 5.07118C11.9208 4.65214 12.9898 4.20334 13.9274 4.14574C13.9677 4.14334 13.9869 4.1947 13.9552 4.21966C13.8127 4.3291 13.6568 4.4803 13.543 4.63342C13.5239 4.65934 13.5421 4.69678 13.5742 4.69726C14.2325 4.70206 15.1605 4.93246 15.765 5.27182C15.8058 5.29486 15.777 5.37406 15.731 5.3635C14.816 5.15374 13.318 4.99438 11.762 5.37406C10.3729 5.71294 9.31255 6.23614 8.53909 6.79917C8.50023 6.82749 8.45321 6.77661 8.48487 6.73965Z" fill="black"/>
</svg>
