<svg width="23" height="24" viewBox="0 0 23 24" fill="none" xmlns="http://www.w3.org/2000/svg">
<g clip-path="url(#clip0_6024_22204)">
<path d="M1.4591 1.03561L14.7446 0.0388095C16.3573 -0.114545 16.7796 0.000470798 17.8164 0.728905L22.0785 3.71932C22.7696 4.21772 23 4.37108 23 4.94616V21.3168C23 22.3519 22.616 22.9653 21.3105 23.042L5.87479 23.9621C4.87646 24.0005 4.41569 23.8855 3.91653 23.2337L0.806344 19.2081C0.230384 18.4414 0 17.9046 0 17.2529V2.68418C0 1.84073 0.383973 1.11229 1.4591 1.03561Z" fill="white"/>
<path fill-rule="evenodd" clip-rule="evenodd" d="M14.7446 0.0389695L1.4591 1.03577C0.383973 1.11245 0 1.84089 0 2.68434V17.253C0 17.9048 0.230384 18.4799 0.806344 19.2083L3.91653 23.2722C4.41569 23.924 4.91486 24.0773 5.87479 24.0006L21.3105 23.0805C22.616 23.0038 23 22.3904 23 21.3553V4.94632C23 4.40958 22.808 4.25622 22.1553 3.79616C22.1169 3.75782 22.0785 3.75782 22.0401 3.71948L17.8164 0.767404C16.818 0.000630894 16.3957 -0.0760465 14.7446 0.0389695ZM6.22037 4.67795C4.95326 4.75462 4.68447 4.79296 3.95492 4.17954L2.15025 2.76101C1.95826 2.56932 2.03506 2.33929 2.53422 2.30095L15.3205 1.38082C16.3957 1.30415 16.9332 1.64919 17.3556 1.99424L19.5442 3.56613C19.6594 3.60447 19.8898 3.87284 19.5826 3.87284L6.37396 4.67795H6.22037ZM4.76127 21.2019V7.28498C4.76127 6.67156 4.95326 6.40319 5.49082 6.36485L20.6578 5.48306C21.1569 5.44472 21.3873 5.75143 21.3873 6.36485V20.1668C21.3873 20.7802 21.2721 21.2786 20.4658 21.3169L5.95159 22.1604C5.14524 22.2371 4.76127 21.9303 4.76127 21.2019ZM19.0835 8.05175C19.1603 8.47348 19.0835 8.8952 18.6611 8.93354L17.9699 9.08689V19.3617C17.3556 19.7067 16.818 19.8601 16.3573 19.8601C15.6277 19.8601 15.4357 19.63 14.8598 18.9399L10.2521 11.7323V18.6716L11.7112 19.0166C11.7112 19.0166 11.7112 19.8601 10.5593 19.8601L7.33389 20.0518C7.25709 19.8601 7.33389 19.4 7.64107 19.3233L8.48581 19.0933V9.89201L7.33389 9.77699C7.25709 9.35526 7.48748 8.74185 8.14023 8.70351L11.596 8.47348L16.3573 15.7578V9.31693L15.1285 9.16357C15.0518 8.66517 15.3973 8.28178 15.8581 8.24344L19.0835 8.05175Z" fill="black"/>
</g>
<defs>
<clipPath id="clip0_6024_22204">
<rect width="23" height="24" fill="white"/>
</clipPath>
</defs>
</svg>
