<svg width="24" height="24" viewBox="0 0 24 24" fill="none" xmlns="http://www.w3.org/2000/svg">
<path d="M11.9901 0C5.36842 0 0 5.36842 0 11.9901C0 17.0724 3.15789 21.4145 7.61842 23.1612C7.50987 22.2138 7.42105 20.7533 7.6579 19.7171C7.875 18.7796 9.05921 13.7566 9.05921 13.7566C9.05921 13.7566 8.70395 13.0362 8.70395 11.9803C8.70395 10.3125 9.67105 9.06908 10.875 9.06908C11.9013 9.06908 12.3947 9.83882 12.3947 10.7566C12.3947 11.7829 11.7434 13.3224 11.398 14.7533C11.1118 15.9474 12 16.9243 13.1743 16.9243C15.3059 16.9243 16.9441 14.6743 16.9441 11.4375C16.9441 8.56579 14.8816 6.5625 11.9309 6.5625C8.51645 6.5625 6.51316 9.11842 6.51316 11.7632C6.51316 12.7895 6.9079 13.8947 7.40132 14.4967C7.5 14.6151 7.50987 14.7237 7.48026 14.8421C7.39145 15.2171 7.18421 16.0362 7.14474 16.2039C7.0954 16.4211 6.96711 16.4704 6.74013 16.3618C5.24013 15.6612 4.30263 13.4803 4.30263 11.7138C4.30263 7.93421 7.04605 4.46053 12.227 4.46053C16.3816 4.46053 19.6184 7.42105 19.6184 11.3882C19.6184 15.523 17.0132 18.8487 13.4013 18.8487C12.1875 18.8487 11.0428 18.2171 10.6579 17.4671C10.6579 17.4671 10.0559 19.7566 9.9079 20.3191C9.64145 21.3651 8.91119 22.6678 8.41776 23.4671C9.54276 23.8125 10.727 24 11.9704 24C18.5921 24 23.9605 18.6316 23.9605 12.0099C23.9803 5.36842 18.6118 0 11.9901 0Z" fill="#E60023"/>
</svg>
