<svg width="24" height="24" viewBox="0 0 24 24" fill="none" xmlns="http://www.w3.org/2000/svg">
<path d="M12 24C18.6274 24 24 18.6274 24 12C24 5.37258 18.6274 0 12 0C5.37258 0 0 5.37258 0 12C0 18.6274 5.37258 24 12 24Z" fill="url(#paint0_linear_6024_22125)"/>
<path fill-rule="evenodd" clip-rule="evenodd" d="M5.42037 11.869C8.9157 10.3363 11.2521 9.34569 12.4297 8.8597C15.7568 7.47653 16.4484 7.23354 16.897 7.21484C16.9905 7.21484 17.2148 7.23354 17.3643 7.34569C17.4764 7.43914 17.5138 7.56998 17.5325 7.66344C17.5512 7.7569 17.5699 7.96251 17.5512 8.13073C17.3643 10.0186 16.5979 14.6354 16.1867 16.7476C16.0185 17.6448 15.6821 17.9438 15.3643 17.9812C14.6727 18.0373 14.1307 17.5139 13.4578 17.084C12.411 16.3924 11.8129 15.9625 10.7849 15.2896C9.60729 14.5046 10.3736 14.0747 11.0465 13.3831C11.2148 13.1962 14.2989 10.4111 14.355 10.1494C14.355 10.112 14.3736 9.99989 14.2989 9.94382C14.2241 9.88774 14.1307 9.90643 14.0559 9.92512C13.9437 9.94382 12.2615 11.0653 8.99047 13.2709C8.50449 13.6074 8.07458 13.7569 7.68206 13.7569C7.25215 13.7569 6.42972 13.5139 5.8129 13.3083C5.06523 13.0653 4.4671 12.9345 4.52318 12.5233C4.56056 12.3176 4.85963 12.0933 5.42037 11.869Z" fill="white"/>
<defs>
<linearGradient id="paint0_linear_6024_22125" x1="0" y1="11.9913" x2="23.9826" y2="11.9913" gradientUnits="userSpaceOnUse">
<stop stop-color="#2AABEE"/>
<stop offset="1" stop-color="#229ED9"/>
</linearGradient>
</defs>
</svg>
